# xmcd
#
# Track frame offsets:
#	150
#	11337
#	34835
#	49460
#	71281
#	103356
#	120481
#	133907
#	155093
#	177143
#	198112
#	224294
#	241879
#	259876
#	274311
#	283762
#	295877
#	313936
#	331613
#	347143
#
# Disc length: 4780 seconds
#
# Revision: 1
# Processed by: cddbd v1.5.2PL0 Copyright (c) Steve Scherf et al.
# Submitted via: audiograbber 1.83.01
#
DISCID=3912aa14
DTITLE=Georg Danzer - Die ultimative Liedersammlung  2
DYEAR=1900
DGENRE=Austropop
TTITLE0=Die Freiheit
TTITLE1=Mei Leb'n (Radio Version)
TTITLE2=Ruhe vor dem Sturm  (Radio Version)
TTITLE3=Griechenland  (Radio Version)
TTITLE4=Der alte Wessely  (Radio Version)
TTITLE5=Deppert's Kind
TTITLE6=Nur a Klana Bua im Winter
TTITLE7=Zombieball
TTITLE8=Die Türken  (Radio Version)
TTITLE9=Weisse Pferde
TTITLE10=Für Anne (1912)
TTITLE11=Menscliche Wärme
TTITLE12=Mit letzer Kraft
TTITLE13=Doppelgänger
TTITLE14=Joschko
TTITLE15=Huet Nacht erschien mir Albert Einstein
TTITLE16=Die Leut' san alle Deppert! - ausser mir
TTITLE17=Total
TTITLE18=Sei immer höflich (Album Version)
TTITLE19=Heasd Karli, Du bisd a Wahnsinn (&M. Mendt)
EXTD=
EXTT0=
EXTT1=
EXTT2=
EXTT3=
EXTT4=
EXTT5=
EXTT6=
EXTT7=
EXTT8=
EXTT9=
EXTT10=
EXTT11=
EXTT12=
EXTT13=
EXTT14=
EXTT15=
EXTT16=
EXTT17=
EXTT18=
EXTT19=
PLAYORDER=
